<?xml version="1.0" standalone="no"?>
<!DOCTYPE svg PUBLIC "-//W3C//DTD SVG 20010904//EN"
 "http://www.w3.org/TR/2001/REC-SVG-20010904/DTD/svg10.dtd">
<svg version="1.0" xmlns="http://www.w3.org/2000/svg"
 width="300.000000pt" height="300.000000pt" viewBox="0 0 300.000000 300.000000"
 preserveAspectRatio="xMidYMid meet">
<metadata>
Created by potrace 1.10, written by Peter Selinger 2001-2011
</metadata>
<g transform="translate(0.000000,300.000000) scale(0.100000,-0.100000)"
fill="#000000" stroke="none">
<path d="M1867 2478 c-13 -76 -71 -180 -146 -260 l-69 -73 38 -43 c80 -90 93
-229 35 -377 -18 -45 33 16 54 65 37 87 37 215 0 308 -11 26 -11 36 -1 53 65
104 105 233 100 323 l-3 51 -8 -47z m-114 -309 c-21 -42 -22 -53 -11 -67 10
-13 8 -13 -9 1 -13 11 -19 25 -16 35 5 11 2 13 -8 8 -8 -4 -2 4 14 18 15 14
27 29 27 35 0 5 6 12 13 14 6 3 12 6 13 6 1 1 -10 -22 -23 -50z"/>
<path d="M1489 2351 c-60 -61 -24 -151 61 -151 54 0 90 34 90 85 0 48 -45 95
-90 95 -22 0 -41 -9 -61 -29z m93 -28 c36 -32 17 -83 -32 -83 -48 0 -67 45
-33 82 20 22 41 23 65 1z"/>
<path d="M1435 2109 c-21 -12 -59 -38 -85 -60 -52 -44 -117 -75 -180 -86 l-45
-7 43 -6 c72 -11 147 5 233 49 102 52 126 53 172 2 45 -50 61 -107 53 -191 -4
-53 -17 -87 -66 -185 -33 -66 -60 -123 -60 -127 0 -4 -5 -19 -11 -34 l-10 -28
-22 28 c-13 16 -59 49 -102 75 -65 38 -84 54 -100 88 -11 23 -25 42 -32 43
-23 0 -39 90 -15 90 3 0 29 -13 59 -30 29 -16 58 -30 64 -30 23 0 59 -54 59
-88 0 -13 -7 -19 -19 -18 -23 1 -105 72 -97 84 3 5 -1 9 -9 9 -18 0 -18 -1 0
-36 16 -32 63 -74 108 -97 39 -21 49 -6 44 59 -5 57 -22 78 -103 123 -73 41
-91 59 -96 99 l-3 30 -22 -34 c-48 -76 -38 -167 26 -229 21 -20 74 -56 117
-79 44 -24 93 -55 110 -70 l32 -28 -8 -105 c-11 -136 -12 -258 -2 -264 4 -2
20 19 35 47 30 57 83 121 230 279 53 58 97 108 97 112 0 3 -6 6 -13 6 -17 0
-196 -181 -276 -279 -19 -23 -36 -39 -38 -37 -10 10 10 176 21 176 6 1 29 14
51 30 22 16 65 43 95 60 59 33 94 59 151 116 36 35 37 36 48 16 20 -38 41
-136 41 -193 0 -113 -55 -215 -148 -275 -53 -35 -199 -100 -207 -93 -12 13 83
148 190 268 22 24 33 41 25 36 -8 -5 0 6 18 24 39 39 75 105 70 129 -2 12 -14
2 -38 -33 -19 -27 -83 -108 -143 -180 -121 -146 -193 -274 -203 -360 -5 -50
-5 -50 9 -19 22 47 81 90 188 138 113 50 166 90 213 160 88 129 86 263 -5 465
l-33 75 -8 -37 c-17 -82 -67 -138 -182 -202 -37 -20 -83 -53 -103 -71 -20 -19
-38 -32 -41 -30 -6 7 39 83 98 164 98 134 110 153 105 162 -3 4 2 37 11 71 34
132 -3 251 -99 320 -51 37 -131 40 -192 8z m163 -32 c35 -17 92 -103 101 -152
8 -44 5 -137 -6 -165 -3 -8 -7 -21 -9 -28 -4 -22 -34 -62 -45 -62 -7 0 -8 7
-4 18 54 140 35 276 -49 350 -21 18 -52 36 -69 39 -31 7 -32 7 -7 14 28 8 53
4 88 -14z"/>
<path d="M1343 1922 c25 -27 21 -64 -17 -153 -5 -12 4 -20 34 -34 23 -10 48
-28 56 -39 13 -19 14 -18 14 16 0 54 -8 69 -35 62 -22 -5 -23 -4 -15 29 4 19
10 39 14 45 10 16 32 4 44 -24 10 -20 9 -24 -3 -24 -14 0 -14 -3 0 -24 11 -16
15 -44 14 -90 -1 -37 1 -69 4 -72 12 -12 48 131 42 168 -10 54 -54 116 -101
138 -53 26 -73 27 -51 2z"/>
<path d="M1098 1604 c-58 -130 -63 -208 -19 -299 38 -79 78 -115 181 -164 92
-43 107 -53 134 -91 l18 -25 -6 34 c-11 62 -66 155 -154 261 -48 58 -97 119
-110 135 l-23 30 6 -29 c5 -23 77 -129 105 -156 16 -15 79 -98 89 -118 15 -28
7 -40 -14 -22 -8 7 -15 10 -15 6 0 -16 -109 51 -143 88 -64 70 -84 195 -45
281 15 34 26 32 72 -15 21 -22 43 -40 48 -40 5 0 6 -4 3 -10 -3 -5 0 -7 7 -5
18 7 103 -47 123 -79 9 -14 19 -45 22 -68 l5 -43 -51 55 c-115 122 -136 142
-166 157 l-30 16 25 -29 c14 -16 62 -68 108 -117 45 -49 95 -111 111 -138 15
-27 31 -46 34 -42 10 9 8 83 -3 142 -14 73 -40 105 -137 167 -96 62 -124 91
-139 141 l-10 36 -26 -59z"/>
<path d="M1238 948 c-29 -10 -35 -22 -18 -33 6 -4 10 -62 10 -141 0 -83 -4
-134 -10 -134 -5 0 -10 -7 -10 -15 0 -11 12 -15 49 -15 54 0 70 10 46 30 -12
10 -15 42 -15 166 0 165 1 162 -52 142z"/>
<path d="M1672 951 c-21 -13 -11 -55 14 -59 30 -4 48 21 34 47 -11 22 -27 26
-48 12z"/>
<path d="M1780 944 c-30 -13 -33 -17 -17 -25 15 -9 17 -27 17 -138 0 -102 -3
-131 -15 -141 -12 -10 -18 -10 -30 0 -11 9 -15 35 -15 107 l0 96 -31 -7 c-17
-3 -35 -6 -40 -6 -13 0 -11 -28 3 -32 7 -3 11 -31 11 -78 0 -47 -4 -75 -11
-78 -7 -2 -12 -10 -12 -17 0 -11 24 -14 110 -14 89 0 110 3 110 15 0 8 -4 14
-10 14 -19 0 -10 36 14 59 l24 22 22 -32 c18 -25 21 -35 12 -49 -15 -25 -6
-30 50 -30 36 0 48 4 48 15 0 8 -4 15 -10 15 -5 0 -27 26 -49 59 l-40 58 28
27 c15 14 35 26 44 26 9 0 17 7 17 15 0 11 -13 15 -54 15 -57 0 -78 -12 -50
-28 15 -8 12 -15 -22 -56 -21 -25 -41 -46 -44 -46 -3 0 -5 55 -5 122 0 72 -4
122 -10 124 -5 2 -26 -4 -45 -12z"/>
<path d="M840 920 c0 -5 7 -13 15 -18 13 -7 15 -29 13 -133 l-3 -124 -25 0
c-18 0 -26 6 -28 23 -5 32 -42 30 -42 -2 0 -55 91 -76 135 -31 24 23 25 30 25
145 0 98 3 122 15 126 33 13 12 24 -45 24 -33 0 -60 -4 -60 -10z"/>
<path d="M1320 920 c0 -5 6 -13 14 -17 7 -4 39 -71 69 -148 31 -77 62 -141 70
-143 9 -2 30 38 65 128 29 72 52 135 52 140 0 5 9 14 20 20 33 18 23 30 -25
30 -33 0 -45 -4 -45 -15 0 -8 5 -15 10 -15 6 0 10 -5 10 -11 0 -17 -64 -189
-70 -189 -3 0 -20 41 -39 92 -26 73 -31 96 -22 110 17 27 15 28 -49 28 -33 0
-60 -4 -60 -10z"/>
<path d="M1001 814 c-11 -14 -17 -32 -14 -40 7 -18 43 -18 43 0 0 18 27 46 45
46 15 0 45 -27 45 -40 0 -18 -30 -38 -69 -44 -23 -3 -50 -15 -61 -26 -57 -57
30 -132 98 -84 20 14 24 14 38 0 17 -17 59 -21 68 -7 3 5 -1 14 -9 21 -11 9
-15 33 -15 86 0 95 -15 114 -94 114 -47 0 -57 -4 -75 -26z m114 -121 c-10 -40
-25 -54 -54 -51 -20 2 -27 9 -29 31 -4 29 19 45 67 46 20 1 22 -2 16 -26z"/>
<path d="M2060 820 c-43 -43 -20 -93 50 -110 47 -11 51 -14 48 -39 -4 -36 -54
-43 -79 -10 -20 27 -50 20 -42 -10 12 -46 130 -54 165 -11 38 47 17 87 -56
105 -36 10 -41 14 -41 40 0 40 35 47 59 11 16 -25 46 -26 46 -1 0 44 -112 63
-150 25z"/>
<path d="M966 534 c-20 -20 -20 -29 0 -49 17 -17 35 -16 41 2 3 7 -4 9 -16 6
-16 -4 -21 -1 -21 16 0 15 6 21 21 21 11 0 17 5 14 10 -9 14 -21 12 -39 -6z"/>
<path d="M1046 538 c-14 -29 -3 -63 22 -66 12 -2 22 1 22 7 0 6 -6 11 -14 11
-9 0 -16 13 -18 33 -3 24 -6 28 -12 15z"/>
<path d="M1171 510 c1 -36 3 -40 8 -20 l7 25 8 -23 c8 -24 26 -21 26 4 0 8 -4
12 -10 9 -5 -3 -10 -2 -10 2 0 5 -7 18 -15 29 -13 18 -14 16 -14 -26z"/>
<path d="M1225 538 c-3 -7 -1 -26 4 -43 9 -29 9 -29 10 13 1 41 -5 54 -14 30z"/>
<path d="M1286 515 c-20 -47 -20 -48 5 -33 17 10 23 10 26 1 11 -29 21 -10 11
20 -17 50 -25 53 -42 12z"/>
<path d="M1360 540 c0 -5 4 -10 9 -10 6 0 12 -15 14 -32 l4 -33 1 33 c1 17 7
32 12 32 6 0 10 5 10 10 0 6 -11 10 -25 10 -14 0 -25 -4 -25 -10z"/>
<path d="M1440 510 c0 -36 3 -40 25 -40 14 0 25 5 25 10 0 6 -8 10 -17 10 -15
0 -16 2 -3 10 13 9 13 11 0 20 -13 8 -12 10 3 10 9 0 17 5 17 10 0 6 -11 10
-25 10 -22 0 -25 -4 -25 -40z"/>
<path d="M1563 535 c-3 -9 2 -22 13 -30 19 -14 18 -14 0 -15 -14 0 -17 -3 -10
-10 13 -13 44 -2 44 15 0 6 -10 17 -22 23 l-23 11 25 0 c20 1 22 3 10 11 -21
14 -30 12 -37 -5z"/>
<path d="M1640 510 c0 -36 3 -40 25 -40 31 0 33 20 3 21 -17 1 -19 2 -5 6 9 2
17 9 17 14 0 5 -8 9 -17 10 -14 0 -13 2 5 9 29 12 28 20 -3 20 -22 0 -25 -4
-25 -40z"/>
<path d="M1721 508 c1 -24 3 -35 6 -25 2 9 8 17 13 17 5 0 14 -8 19 -17 8 -14
10 -9 8 22 -2 33 -6 41 -24 43 -21 3 -23 0 -22 -40z"/>
<path d="M1801 540 c0 -8 6 -28 13 -45 l13 -30 17 33 c9 18 15 39 13 45 -3 7
-10 -1 -17 -18 l-12 -30 -13 30 c-7 17 -14 23 -14 15z"/>
<path d="M1953 543 c-19 -7 -16 -60 3 -67 17 -7 34 0 34 14 0 4 -9 6 -20 3
-15 -4 -20 0 -20 16 0 15 6 21 21 21 11 0 17 5 14 10 -7 11 -13 11 -32 3z"/>
<path d="M2030 510 c0 -33 3 -40 20 -40 25 0 26 17 3 23 -17 4 -17 5 0 6 9 0
17 5 17 10 0 5 -8 12 -17 14 -17 4 -17 5 0 6 24 1 22 21 -3 21 -17 0 -20 -7
-20 -40z"/>
</g>
</svg>
