<?xml version="1.0" standalone="no"?>
<!DOCTYPE svg PUBLIC "-//W3C//DTD SVG 20010904//EN"
 "http://www.w3.org/TR/2001/REC-SVG-20010904/DTD/svg10.dtd">
<svg version="1.0" xmlns="http://www.w3.org/2000/svg"
 width="500.000000pt" height="500.000000pt" viewBox="0 0 500.000000 500.000000"
 preserveAspectRatio="xMidYMid meet">

<g transform="translate(0.000000,500.000000) scale(0.100000,-0.100000)"
fill="#000000" stroke="none">
<path d="M2520 3948 c-87 -44 -113 -143 -59 -223 44 -65 147 -83 208 -37 67
50 85 116 51 186 -39 81 -124 112 -200 74z"/>
<path d="M2470 3544 c-70 -19 -128 -53 -215 -126 -87 -73 -181 -121 -282 -144
l-78 -18 50 -8 c120 -20 283 18 420 98 121 72 191 71 255 -3 75 -85 107 -204
90 -334 -13 -104 -32 -161 -90 -264 -114 -205 -160 -331 -141 -385 9 -28 9
-31 -4 -20 -8 7 -15 11 -15 9 -23 -201 -32 -520 -17 -574 8 -29 9 -29 45 40
62 117 115 182 372 455 69 74 143 153 163 175 20 22 37 35 37 28 0 -31 -112
-188 -246 -343 -136 -158 -222 -279 -279 -395 -51 -104 -85 -210 -84 -265 0
-22 2 -21 20 14 47 89 98 123 399 264 127 60 217 138 284 245 134 218 125 459
-31 769 l-47 93 -12 -51 c-27 -122 -111 -220 -260 -303 -111 -62 -193 -117
-236 -159 -21 -20 -40 -33 -43 -30 -9 9 67 141 127 220 156 205 233 377 245
542 11 159 -41 300 -148 398 -29 26 -68 55 -88 64 -49 24 -125 27 -191 8z"/>
<path d="M2233 3214 c30 -32 29 -30 27 -99 -1 -32 -12 -73 -31 -114 -16 -35
-29 -67 -29 -72 0 -4 27 -20 59 -34 32 -15 72 -40 87 -56 15 -16 32 -29 37
-29 10 0 4 102 -8 139 -13 38 13 16 31 -27 12 -28 15 -58 11 -122 -8 -125 2
-136 38 -43 25 66 30 92 30 168 0 73 -4 98 -23 135 -42 86 -127 152 -226 176
l-30 7 27 -29z"/>
<path d="M2060 1579 c-52 -15 -57 -25 -27 -53 l27 -25 0 -200 0 -199 -27 -32
c-34 -41 -22 -50 75 -50 81 0 102 16 63 48 -20 16 -21 26 -24 267 l-2 250 -25
2 c-14 1 -41 -3 -60 -8z"/>
<path d="M2783 1578 c-22 -29 -22 -48 1 -74 18 -22 28 -26 50 -20 38 9 54 48
32 81 -18 27 -66 35 -83 13z"/>
<path d="M2977 1578 c-46 -12 -57 -34 -28 -54 20 -15 21 -22 21 -225 l0 -210
-25 -23 c-36 -33 -16 -46 72 -46 60 0 75 3 80 17 4 11 -1 22 -15 31 -32 21
-27 43 22 91 l44 43 36 -53 c41 -61 42 -67 19 -84 -10 -7 -14 -19 -10 -29 6
-14 19 -16 89 -14 71 3 83 6 86 21 3 12 -4 20 -18 24 -20 5 -140 172 -140 195
0 18 54 68 96 87 30 15 42 25 38 36 -9 23 -172 22 -181 -2 -4 -11 1 -22 15
-31 12 -8 22 -19 22 -24 0 -12 -120 -138 -132 -138 -4 0 -8 90 -8 200 l0 200
-22 -1 c-13 -1 -40 -6 -61 -11z"/>
<path d="M1410 1537 c0 -7 9 -20 20 -30 19 -16 20 -29 20 -216 0 -216 -2 -226
-56 -219 -21 2 -30 11 -38 36 -14 40 -33 54 -58 41 -37 -20 -13 -85 42 -114
62 -32 165 -8 191 44 9 18 15 85 17 221 3 184 4 196 24 211 36 28 13 39 -78
39 -61 0 -84 -3 -84 -13z"/>
<path d="M2205 1540 c-4 -6 6 -23 22 -39 19 -19 55 -96 112 -242 46 -118 88
-220 94 -226 16 -21 43 -15 56 14 7 15 28 68 47 118 118 304 129 329 156 344
42 24 28 36 -47 39 -78 3 -104 -10 -67 -35 29 -20 28 -46 -9 -140 -17 -43 -41
-104 -53 -136 -13 -32 -27 -58 -32 -59 -8 0 -122 282 -124 305 0 4 9 15 20 24
40 35 26 43 -74 43 -53 0 -98 -4 -101 -10z"/>
<path d="M1715 1392 c-46 -22 -61 -37 -70 -73 -4 -17 -1 -30 9 -38 21 -18 66
-6 66 17 0 36 29 62 69 62 44 0 71 -24 71 -62 0 -37 -27 -55 -105 -69 -88 -15
-135 -55 -135 -114 0 -55 44 -95 105 -95 44 0 103 22 117 43 4 7 17 1 34 -16
28 -28 83 -37 114 -17 13 8 11 14 -12 35 -27 25 -28 29 -28 136 0 125 -11 159
-61 185 -50 25 -127 28 -174 6z m142 -240 c-8 -76 -71 -114 -125 -76 -25 17
-29 60 -9 88 13 17 114 47 131 38 4 -3 6 -25 3 -50z"/>
<path d="M3492 1400 c-73 -18 -107 -85 -78 -153 16 -39 34 -50 114 -68 58 -13
72 -24 72 -59 0 -71 -114 -83 -140 -14 -12 32 -37 41 -57 21 -21 -21 -10 -60
23 -82 34 -22 127 -30 180 -16 58 16 87 50 88 107 1 68 -27 89 -157 118 -36 8
-55 46 -39 81 10 20 19 25 51 25 34 0 42 -4 60 -35 23 -39 29 -41 56 -21 16
12 17 18 8 39 -7 14 -22 33 -35 41 -29 19 -103 27 -146 16z"/>
<path d="M2768 1383 c-43 -18 -47 -27 -18 -45 18 -12 20 -24 20 -132 0 -108
-2 -122 -21 -142 -32 -34 -16 -44 72 -44 63 0 81 3 86 16 3 9 -3 21 -16 30
-20 14 -21 23 -21 175 l0 159 -32 -1 c-18 -1 -50 -8 -70 -16z"/>
<path d="M1622 903 c-20 -8 -33 -50 -23 -77 10 -24 33 -35 64 -28 29 6 19 17
-15 17 -31 0 -33 2 -33 35 0 33 2 35 33 35 17 0 32 3 32 7 0 5 -4 8 -9 8 -5 0
-15 2 -23 4 -7 3 -19 2 -26 -1z"/>
<path d="M1747 899 c-5 -9 -7 -36 -5 -60 3 -42 5 -44 36 -47 18 -2 32 1 32 7
0 6 -11 11 -24 11 -23 0 -25 4 -28 53 -2 34 -6 46 -11 36z"/>
<path d="M1950 856 c0 -31 5 -56 10 -56 6 0 10 17 11 38 l0 37 19 -45 18 -45
21 45 21 45 0 -37 c0 -21 5 -38 11 -38 6 0 9 21 7 53 -2 28 -7 52 -13 52 -5 0
-17 -19 -25 -42 -8 -24 -17 -43 -20 -43 -3 0 -12 19 -20 42 -23 63 -40 61 -40
-6z"/>
<path d="M2145 859 c-9 -28 -14 -53 -11 -56 3 -4 6 -1 6 5 0 19 58 14 70 -5 9
-15 10 -13 5 11 -10 45 -33 96 -44 96 -5 0 -17 -23 -26 -51z m45 -6 c0 -7 -7
-13 -15 -13 -16 0 -19 9 -9 35 5 13 8 14 15 3 5 -7 9 -19 9 -25z"/>
<path d="M2283 896 c11 -9 17 -27 17 -55 0 -22 5 -41 10 -41 6 0 10 19 10 41
0 28 6 46 18 55 15 12 12 13 -28 13 -40 0 -43 -1 -27 -13z"/>
<path d="M2410 850 l0 -60 35 0 c19 0 35 5 35 11 0 6 -12 9 -27 7 -20 -2 -29
2 -31 15 -2 12 3 17 17 17 11 0 23 5 26 10 4 6 -5 10 -19 10 -16 0 -26 6 -26
15 0 9 9 15 24 15 14 0 28 5 31 10 4 6 -8 10 -29 10 l-36 0 0 -60z"/>
<path d="M2618 899 c-27 -15 -21 -39 12 -50 17 -6 30 -18 30 -26 0 -11 -8 -14
-30 -11 -35 5 -37 3 -10 -12 14 -8 26 -8 40 0 29 16 24 40 -10 53 -38 14 -39
37 -2 37 21 0 24 2 12 10 -18 12 -21 12 -42 -1z"/>
<path d="M2742 853 c3 -52 5 -58 27 -61 13 -2 28 1 34 7 8 8 2 11 -21 11 -22
0 -32 5 -32 15 0 8 9 15 19 15 11 0 23 5 26 10 4 6 -5 10 -19 10 -16 0 -26 6
-26 15 0 9 9 15 24 15 14 0 28 5 31 10 4 6 -8 10 -30 10 l-36 0 3 -57z"/>
<path d="M2870 849 c0 -37 4 -58 10 -54 6 3 10 15 10 26 0 28 29 23 41 -7 5
-15 12 -25 15 -22 2 3 0 18 -6 33 -8 20 -7 31 2 42 10 12 9 18 -7 29 -10 8
-29 14 -42 14 -21 0 -23 -4 -23 -61z m60 26 c0 -14 -27 -28 -40 -20 -4 3 -6
13 -3 24 5 21 43 18 43 -4z"/>
<path d="M3000 909 c0 -13 33 -105 41 -113 11 -12 52 78 47 102 -3 11 -9 2
-17 -23 -19 -58 -27 -62 -41 -18 -11 33 -30 67 -30 52z"/>
<path d="M3252 894 c-45 -31 -14 -110 39 -97 31 8 31 20 -1 15 -35 -5 -52 21
-39 57 8 20 14 23 42 17 30 -5 31 -5 13 9 -25 19 -26 19 -54 -1z"/>
<path d="M3384 896 c-3 -7 -4 -33 -2 -57 3 -42 5 -44 36 -47 19 -2 32 1 32 8
0 6 -10 10 -22 8 -36 -4 -40 26 -5 37 21 8 21 8 -5 12 -31 5 -29 33 2 33 11 0
22 5 25 10 4 6 -7 10 -25 10 -17 0 -33 -6 -36 -14z"/>
<path d="M1870 850 c0 -27 4 -50 9 -50 6 0 10 23 9 50 0 28 -4 50 -9 50 -5 0
-9 -22 -9 -50z"/>
<path d="M3150 850 c0 -27 5 -50 10 -50 6 0 10 23 10 50 0 28 -4 50 -10 50 -5
0 -10 -22 -10 -50z"/>
</g>
</svg>
